{"glyphs":{"0":{"ha":688,"x_min":0,"x_max":0,"o":""},"1":{"ha":411,"x_min":0,"x_max":363,"o":"m 199 1158 l 363 1158 l 363 0 l 0 0 l 0 1076 l 199 1158 z "},"2":{"ha":944,"x_min":0,"x_max":889,"o":"m 0 1162 l 724 1162 q 882 1013 882 1162 l 882 785 q 746 542 889 610 l 387 345 l 387 290 l 882 290 l 882 0 l 0 0 l 0 432 q 90 597 0 556 l 495 808 l 495 880 l 64 880 l 0 1029 l 0 1162 z "},"3":{"ha":921,"x_min":0,"x_max":866,"o":"m 0 1160 l 722 1160 q 863 1061 861 1158 l 863 736 q 707 608 863 608 l 707 581 q 863 481 862 583 l 863 127 q 722 0 866 -1 l 0 0 l 0 297 l 453 297 l 453 439 l 212 439 l 212 736 l 453 736 l 453 863 l 85 863 l 0 1061 l 0 1160 z "},"4":{"ha":951,"x_min":0,"x_max":882,"o":"m 531 1161 l 531 1028 l 378 557 l 378 511 l 511 511 l 511 717 l 882 717 l 882 0 l 511 0 l 511 213 l 0 213 l 0 544 l 212 1161 l 531 1161 z "},"5":{"ha":688,"x_min":0,"x_max":0,"o":""},"6":{"ha":880,"x_min":0,"x_max":801,"o":"m 220 1160 l 789 1160 l 789 1033 l 720 859 l 359 859 l 359 743 l 604 743 q 801 615 801 743 l 801 116 q 684 0 778 0 l 116 0 q 0 116 0 23 l 0 1033 q 220 1160 0 1160 m 359 441 l 359 290 l 441 290 l 441 441 l 359 441 z "},"7":{"ha":688,"x_min":0,"x_max":0,"o":""},"8":{"ha":688,"x_min":0,"x_max":0,"o":""},"9":{"ha":688,"x_min":0,"x_max":0,"o":""},"\u0000":{"ha":0,"x_min":0,"x_max":0,"o":""},"\u001d":{"ha":0,"x_min":0,"x_max":0,"o":""}," ":{"ha":345,"x_min":0,"x_max":0,"o":""}," ":{"ha":345,"x_min":0,"x_max":0,"o":""},"!":{"ha":456,"x_min":0,"x_max":0,"o":""},"\"":{"ha":456,"x_min":0,"x_max":0,"o":""},"#":{"ha":906,"x_min":0,"x_max":0,"o":""},"$":{"ha":688,"x_min":0,"x_max":0,"o":""},"%":{"ha":1092,"x_min":0,"x_max":0,"o":""},"&":{"ha":1141,"x_min":0,"x_max":0,"o":""},"'":{"ha":235,"x_min":0,"x_max":0,"o":""},"(":{"ha":514,"x_min":0,"x_max":0,"o":""},")":{"ha":514,"x_min":0,"x_max":0,"o":""},"*":{"ha":694,"x_min":0,"x_max":0,"o":""},"+":{"ha":688,"x_min":0,"x_max":0,"o":""},",":{"ha":378,"x_min":0,"x_max":0,"o":""},"-":{"ha":454,"x_min":0,"x_max":0,"o":""},"­":{"ha":454,"x_min":0,"x_max":0,"o":""},".":{"ha":387,"x_min":1,"x_max":368,"o":"m 14 296 l 355 296 q 368 282 368 294 l 368 14 q 355 1 368 1 l 14 1 q 1 14 1 1 l 1 282 q 14 296 3 296 z "},"/":{"ha":386,"x_min":0,"x_max":0,"o":""},":":{"ha":378,"x_min":0,"x_max":0,"o":""},";":{"ha":378,"x_min":0,"x_max":0,"o":""},";":{"ha":378,"x_min":0,"x_max":0,"o":""},"<":{"ha":688,"x_min":0,"x_max":0,"o":""},"=":{"ha":688,"x_min":0,"x_max":0,"o":""},">":{"ha":688,"x_min":0,"x_max":0,"o":""},"?":{"ha":507,"x_min":0,"x_max":0,"o":""},"@":{"ha":1369,"x_min":0,"x_max":0,"o":""},"A":{"ha":1105,"x_min":0,"x_max":1033,"o":"m 837 1164 l 1033 92 l 1032 0 l 641 0 l 602 235 l 438 235 l 399 0 l 0 0 l 0 111 l 183 1164 l 837 1164 m 462 523 l 569 523 l 569 530 l 536 869 l 503 869 l 462 523 z "},"B":{"ha":1032,"x_min":0,"x_max":962,"o":"m 0 1165 l 779 1165 q 962 1034 962 1152 l 962 740 q 799 609 962 630 l 799 583 q 962 452 962 559 l 962 131 q 851 7 962 41 q 799 0 825 0 l 0 -1 l 0 1165 m 406 871 l 406 740 l 556 740 l 556 871 l 406 871 m 406 452 l 406 294 l 556 294 l 556 452 l 406 452 z "},"C":{"ha":1035,"x_min":0,"x_max":964,"o":"m 157 1162 l 964 1162 l 964 1037 l 882 872 l 453 872 l 453 291 l 964 291 l 964 0 l 157 0 q 0 189 0 0 l 0 989 q 157 1162 0 1162 z "},"D":{"ha":1040,"x_min":0,"x_max":964,"o":"m 0 1167 l 760 1167 q 964 1029 964 1167 l 964 131 q 806 0 964 19 l 0 0 l 0 1167 m 400 295 l 564 295 l 564 872 l 400 872 l 400 295 z "},"E":{"ha":925,"x_min":-1,"x_max":857,"o":"m -1 1165 l 844 1165 q 857 1152 857 1163 l 857 1034 q 785 871 857 983 l 399 871 l 399 740 l 792 740 l 792 452 l 399 452 l 399 294 l 857 294 l 857 0 l 0 0 l -1 1165 z "},"F":{"ha":854,"x_min":0,"x_max":779,"o":"m 0 1164 l 779 1164 l 779 1025 l 712 865 l 366 865 l 366 686 l 724 686 l 724 386 l 366 386 l 366 0 l 0 0 l 0 1164 z "},"G":{"ha":1030,"x_min":0,"x_max":964,"o":"m 184 1167 l 957 1167 l 957 1029 l 885 872 l 400 872 l 400 295 l 564 295 l 564 682 l 964 682 l 964 1 l 243 0 q 39 46 79 0 q 0 151 0 85 l 0 1016 q 184 1167 0 1167 z "},"H":{"ha":944,"x_min":0,"x_max":869,"o":"m 0 1164 l 370 1164 l 371 742 l 511 742 l 511 1164 l 869 1164 l 869 0 l 511 0 l 511 448 l 371 448 l 370 0 l 0 0 l 0 1164 z "},"I":{"ha":434,"x_min":0,"x_max":364,"o":"m 1 1161 l 364 1161 l 364 0 l 0 0 l 1 1161 z "},"J":{"ha":713,"x_min":0,"x_max":650,"o":"m 233 1164 l 644 1164 l 644 137 q 507 0 650 1 l 0 0 l 0 288 l 233 288 l 233 1164 z "},"K":{"ha":970,"x_min":0,"x_max":901,"o":"m 0 1172 l 368 1172 l 368 752 l 429 752 l 525 1172 l 875 1172 l 875 1058 l 734 621 l 901 123 l 901 0 l 543 0 l 429 446 l 368 446 l 368 0 l 0 0 l 0 1172 z "},"L":{"ha":813,"x_min":0,"x_max":740,"o":"m 0 1162 l 359 1163 l 359 296 l 740 296 l 740 0 l 0 -1 l 0 1162 z "},"M":{"ha":1447,"x_min":0,"x_max":1377,"o":"m 1245 1161 q 1377 117 1377 191 l 1377 0 l 994 0 q 983 11 988 0 l 983 555 l 954 555 l 851 0 l 526 0 l 424 558 l 395 559 l 395 7 q 387 0 395 0 l 7 0 q 0 7 0 0 l 0 164 l 127 1154 l 139 1162 l 574 1162 l 672 705 l 680 705 l 698 705 q 804 1162 797 1162 l 1227 1162 l 1245 1161 z "},"N":{"ha":1092,"x_min":0,"x_max":1022,"o":"m 0 1164 l 440 1164 l 652 621 l 684 621 l 629 1077 l 629 1164 l 1022 1164 l 1022 0 l 582 0 l 370 534 l 338 534 l 393 63 l 393 0 l 0 0 l 0 1164 z "},"O":{"ha":937,"x_min":-1,"x_max":868,"o":"m 165 1160 l 727 1160 q 867 1033 868 1157 l 867 127 q 701 0 867 0 l 165 0 q 0 140 -1 1 l 0 1020 q 165 1160 0 1160 m 370 854 l 370 293 l 510 293 l 510 854 l 370 854 z "},"P":{"ha":1061,"x_min":0,"x_max":987,"o":"m 0 1164 l 843 1164 q 987 1038 987 1139 l 987 503 q 812 361 966 370 l 410 361 l 410 0 l 0 0 l 0 1164 m 410 873 l 410 652 l 577 652 l 577 873 l 410 873 z "},"Q":{"ha":941,"x_min":-1,"x_max":868,"o":"m 165 1160 l 727 1160 q 867 1033 868 1157 l 867 127 q 701 0 867 0 l 165 0 q 0 140 -1 1 l 0 1020 q 165 1160 0 1160 m 370 854 l 370 293 l 510 293 l 510 854 l 370 854 m 337 0 l 337 -99 l 543 -99 l 543 0 l 337 0 z "},"R":{"ha":1049,"x_min":0,"x_max":988,"o":"m 0 1165 l 760 1165 q 968 988 968 1165 l 968 589 q 857 432 968 470 l 988 131 l 988 0 l 602 0 l 484 366 l 406 366 l 406 0 l 0 0 l 0 1165 m 406 871 l 406 654 l 563 654 l 563 871 l 406 871 z "},"S":{"ha":939,"x_min":0,"x_max":864,"o":"m 190 1165 l 864 1165 l 864 1034 l 801 871 l 419 871 q 406 857 406 869 l 406 825 q 805 576 406 815 q 864 452 864 513 l 864 131 q 701 0 841 0 l 0 0 l 0 294 l 458 294 l 458 360 q 72 602 458 368 q 0 812 0 647 l 0 982 q 190 1165 0 1165 z "},"T":{"ha":982,"x_min":0,"x_max":903,"o":"m 0 1165 l 903 1165 l 903 1034 l 831 871 l 642 871 l 642 13 l 642 0 l 242 0 l 242 871 l 0 871 l 0 1165 z "},"U":{"ha":942,"x_min":-1,"x_max":871,"o":"m -1 1165 l 366 1165 l 365 296 l 505 296 l 505 1165 l 871 1165 l 871 0 l 130 0 q 0 113 0 18 l -1 1165 z "},"V":{"ha":1002,"x_min":0,"x_max":930,"o":"m 0 1165 l 357 1165 l 452 296 l 487 296 l 574 1165 l 930 1165 l 930 1131 l 739 0 l 200 0 l 0 1122 l 0 1165 z "},"W":{"ha":1326,"x_min":0,"x_max":1247,"o":"m 0 1164 l 362 1164 l 362 613 l 376 613 l 474 1164 l 766 1164 l 871 613 l 885 613 l 885 1164 l 1247 1164 l 1247 1010 l 1124 0 l 732 0 l 633 453 l 613 453 l 523 0 l 119 0 l 0 955 l 0 1164 z "},"X":{"ha":1014,"x_min":0,"x_max":950,"o":"m 52 1168 l 375 1168 l 462 749 l 488 749 l 575 1168 l 898 1168 q 916 1151 916 1165 l 916 1046 l 785 610 l 950 104 l 950 18 q 932 0 950 0 l 584 0 l 488 445 l 462 445 l 366 0 l 18 0 q 0 18 0 0 l 0 104 l 165 627 l 35 1046 l 35 1151 q 52 1168 37 1168 z "},"Y":{"ha":1009,"x_min":0,"x_max":939,"o":"m 0 1164 l 357 1165 l 461 713 l 478 713 l 583 1165 l 939 1165 l 939 1026 l 659 271 l 659 0 l 287 0 l 287 296 l 0 1035 l 0 1164 z "},"Z":{"ha":901,"x_min":0,"x_max":824,"o":"m 0 1163 l 824 1162 l 824 930 l 422 317 l 422 296 l 824 296 l 824 -1 l 0 -1 l 0 233 l 401 846 l 401 867 l 106 867 l 0 1099 l 0 1163 z "},"[":{"ha":514,"x_min":0,"x_max":0,"o":""},"\\":{"ha":386,"x_min":0,"x_max":0,"o":""},"]":{"ha":514,"x_min":0,"x_max":0,"o":""},"^":{"ha":688,"x_min":0,"x_max":0,"o":""},"_":{"ha":694,"x_min":0,"x_max":0,"o":""},"`":{"ha":694,"x_min":0,"x_max":0,"o":""},"a":{"ha":1105,"x_min":0,"x_max":1033,"o":"m 837 1164 l 1033 92 l 1032 0 l 641 0 l 602 235 l 438 235 l 399 0 l 0 0 l 0 111 l 183 1164 l 837 1164 m 462 523 l 569 523 l 569 530 l 536 869 l 503 869 l 462 523 z "},"b":{"ha":1032,"x_min":0,"x_max":962,"o":"m 0 1165 l 779 1165 q 962 1034 962 1152 l 962 740 q 799 609 962 630 l 799 583 q 962 452 962 559 l 962 131 q 851 7 962 41 q 799 0 825 0 l 0 -1 l 0 1165 m 406 871 l 406 740 l 556 740 l 556 871 l 406 871 m 406 452 l 406 294 l 556 294 l 556 452 l 406 452 z "},"c":{"ha":1035,"x_min":0,"x_max":964,"o":"m 157 1162 l 964 1162 l 964 1037 l 882 872 l 453 872 l 453 291 l 964 291 l 964 0 l 157 0 q 0 189 0 0 l 0 989 q 157 1162 0 1162 z "},"d":{"ha":1040,"x_min":0,"x_max":964,"o":"m 0 1167 l 760 1167 q 964 1029 964 1167 l 964 131 q 806 0 964 19 l 0 0 l 0 1167 m 400 295 l 564 295 l 564 872 l 400 872 l 400 295 z "},"e":{"ha":925,"x_min":-1,"x_max":857,"o":"m -1 1165 l 844 1165 q 857 1152 857 1163 l 857 1034 q 785 871 857 983 l 399 871 l 399 740 l 792 740 l 792 452 l 399 452 l 399 294 l 857 294 l 857 0 l 0 0 l -1 1165 z "},"f":{"ha":854,"x_min":0,"x_max":779,"o":"m 0 1164 l 779 1164 l 779 1025 l 712 865 l 366 865 l 366 686 l 724 686 l 724 386 l 366 386 l 366 0 l 0 0 l 0 1164 z "},"g":{"ha":1030,"x_min":0,"x_max":964,"o":"m 184 1167 l 957 1167 l 957 1029 l 885 872 l 400 872 l 400 295 l 564 295 l 564 682 l 964 682 l 964 1 l 243 0 q 39 46 79 0 q 0 151 0 85 l 0 1016 q 184 1167 0 1167 z "},"h":{"ha":944,"x_min":0,"x_max":869,"o":"m 0 1164 l 370 1164 l 371 742 l 511 742 l 511 1164 l 869 1164 l 869 0 l 511 0 l 511 448 l 371 448 l 370 0 l 0 0 l 0 1164 z "},"i":{"ha":434,"x_min":0,"x_max":364,"o":"m 1 1161 l 364 1161 l 364 0 l 0 0 l 1 1161 z "},"j":{"ha":713,"x_min":0,"x_max":650,"o":"m 233 1164 l 644 1164 l 644 137 q 507 0 650 1 l 0 0 l 0 288 l 233 288 l 233 1164 z "},"k":{"ha":970,"x_min":0,"x_max":901,"o":"m 0 1172 l 368 1172 l 368 752 l 429 752 l 525 1172 l 875 1172 l 875 1058 l 734 621 l 901 123 l 901 0 l 543 0 l 429 446 l 368 446 l 368 0 l 0 0 l 0 1172 z "},"l":{"ha":813,"x_min":0,"x_max":740,"o":"m 0 1162 l 359 1163 l 359 296 l 740 296 l 740 0 l 0 -1 l 0 1162 z "},"m":{"ha":1447,"x_min":0,"x_max":1377,"o":"m 1245 1161 q 1377 117 1377 191 l 1377 0 l 994 0 q 983 11 988 0 l 983 555 l 954 555 l 851 0 l 526 0 l 424 558 l 395 559 l 395 7 q 387 0 395 0 l 7 0 q 0 7 0 0 l 0 164 l 127 1154 l 139 1162 l 574 1162 l 672 705 l 680 705 l 698 705 q 804 1162 797 1162 l 1227 1162 l 1245 1161 z "},"n":{"ha":1092,"x_min":0,"x_max":1022,"o":"m 0 1164 l 440 1164 l 652 621 l 684 621 l 629 1077 l 629 1164 l 1022 1164 l 1022 0 l 582 0 l 370 534 l 338 534 l 393 63 l 393 0 l 0 0 l 0 1164 z "},"o":{"ha":937,"x_min":-1,"x_max":868,"o":"m 165 1160 l 727 1160 q 867 1033 868 1157 l 867 127 q 701 0 867 0 l 165 0 q 0 140 -1 1 l 0 1020 q 165 1160 0 1160 m 370 854 l 370 293 l 510 293 l 510 854 l 370 854 z "},"p":{"ha":1061,"x_min":0,"x_max":987,"o":"m 0 1164 l 843 1164 q 987 1038 987 1139 l 987 503 q 812 361 966 370 l 410 361 l 410 0 l 0 0 l 0 1164 m 410 873 l 410 652 l 577 652 l 577 873 l 410 873 z "},"q":{"ha":941,"x_min":-1,"x_max":868,"o":"m 165 1160 l 727 1160 q 867 1033 868 1157 l 867 127 q 701 0 867 0 l 165 0 q 0 140 -1 1 l 0 1020 q 165 1160 0 1160 m 370 854 l 370 293 l 510 293 l 510 854 l 370 854 m 337 0 l 337 -99 l 543 -99 l 543 0 l 337 0 z "},"r":{"ha":1049,"x_min":0,"x_max":988,"o":"m 0 1165 l 760 1165 q 968 988 968 1165 l 968 589 q 857 432 968 470 l 988 131 l 988 0 l 602 0 l 484 366 l 406 366 l 406 0 l 0 0 l 0 1165 m 406 871 l 406 654 l 563 654 l 563 871 l 406 871 z "},"s":{"ha":939,"x_min":0,"x_max":864,"o":"m 190 1165 l 864 1165 l 864 1034 l 801 871 l 419 871 q 406 857 406 869 l 406 825 q 805 576 406 815 q 864 452 864 513 l 864 131 q 701 0 841 0 l 0 0 l 0 294 l 458 294 l 458 360 q 72 602 458 368 q 0 812 0 647 l 0 982 q 190 1165 0 1165 z "},"t":{"ha":982,"x_min":0,"x_max":903,"o":"m 0 1165 l 903 1165 l 903 1034 l 831 871 l 642 871 l 642 13 l 642 0 l 242 0 l 242 871 l 0 871 l 0 1165 z "},"u":{"ha":942,"x_min":-1,"x_max":871,"o":"m -1 1165 l 366 1165 l 365 296 l 505 296 l 505 1165 l 871 1165 l 871 0 l 130 0 q 0 113 0 18 l -1 1165 z "},"v":{"ha":1002,"x_min":0,"x_max":930,"o":"m 0 1165 l 357 1165 l 452 296 l 487 296 l 574 1165 l 930 1165 l 930 1131 l 739 0 l 200 0 l 0 1122 l 0 1165 z "},"w":{"ha":1326,"x_min":0,"x_max":1247,"o":"m 0 1164 l 362 1164 l 362 613 l 376 613 l 474 1164 l 766 1164 l 871 613 l 885 613 l 885 1164 l 1247 1164 l 1247 1010 l 1124 0 l 732 0 l 633 453 l 613 453 l 523 0 l 119 0 l 0 955 l 0 1164 z "},"x":{"ha":1014,"x_min":0,"x_max":950,"o":"m 52 1168 l 375 1168 l 462 749 l 488 749 l 575 1168 l 898 1168 q 916 1151 916 1165 l 916 1046 l 785 610 l 950 104 l 950 18 q 932 0 950 0 l 584 0 l 488 445 l 462 445 l 366 0 l 18 0 q 0 18 0 0 l 0 104 l 165 627 l 35 1046 l 35 1151 q 52 1168 37 1168 z "},"y":{"ha":1009,"x_min":0,"x_max":939,"o":"m 0 1164 l 357 1165 l 461 713 l 478 713 l 583 1165 l 939 1165 l 939 1026 l 659 271 l 659 0 l 287 0 l 287 296 l 0 1035 l 0 1164 z "},"z":{"ha":901,"x_min":0,"x_max":824,"o":"m 0 1163 l 824 1162 l 824 930 l 422 317 l 422 296 l 824 296 l 824 -1 l 0 -1 l 0 233 l 401 846 l 401 867 l 106 867 l 0 1099 l 0 1163 z "},"{":{"ha":688,"x_min":0,"x_max":0,"o":""},"|":{"ha":688,"x_min":0,"x_max":0,"o":""},"}":{"ha":688,"x_min":0,"x_max":0,"o":""},"~":{"ha":688,"x_min":0,"x_max":0,"o":""},"¡":{"ha":456,"x_min":0,"x_max":0,"o":""},"¢":{"ha":772,"x_min":0,"x_max":0,"o":""},"£":{"ha":688,"x_min":0,"x_max":0,"o":""},"¤":{"ha":688,"x_min":0,"x_max":0,"o":""},"¥":{"ha":856,"x_min":0,"x_max":0,"o":""},"¦":{"ha":688,"x_min":0,"x_max":0,"o":""},"§":{"ha":688,"x_min":0,"x_max":0,"o":""},"¨":{"ha":694,"x_min":0,"x_max":0,"o":""},"©":{"ha":1135,"x_min":0,"x_max":0,"o":""},"ª":{"ha":439,"x_min":0,"x_max":0,"o":""},"«":{"ha":640,"x_min":0,"x_max":0,"o":""},"¬":{"ha":688,"x_min":0,"x_max":0,"o":""},"®":{"ha":1135,"x_min":0,"x_max":0,"o":""},"¯":{"ha":454,"x_min":0,"x_max":0,"o":""},"°":{"ha":457,"x_min":0,"x_max":0,"o":""},"±":{"ha":688,"x_min":0,"x_max":0,"o":""},"²":{"ha":688,"x_min":0,"x_max":0,"o":""},"³":{"ha":688,"x_min":0,"x_max":0,"o":""},"´":{"ha":694,"x_min":239,"x_max":650,"o":"m 395 1431 l 650 1430 l 395 1195 l 239 1195 l 395 1431 z "},"µ":{"ha":800,"x_min":0,"x_max":0,"o":""},"¶":{"ha":694,"x_min":0,"x_max":0,"o":""},"·":{"ha":345,"x_min":0,"x_max":0,"o":""},"∙":{"ha":345,"x_min":0,"x_max":0,"o":""},"¸":{"ha":694,"x_min":0,"x_max":0,"o":""},"¹":{"ha":688,"x_min":0,"x_max":0,"o":""},"º":{"ha":487,"x_min":0,"x_max":0,"o":""},"»":{"ha":640,"x_min":0,"x_max":0,"o":""},"¼":{"ha":1158,"x_min":0,"x_max":0,"o":""},"½":{"ha":1332,"x_min":0,"x_max":0,"o":""},"¾":{"ha":1158,"x_min":0,"x_max":0,"o":""},"¿":{"ha":507,"x_min":0,"x_max":0,"o":""},"À":{"ha":1044,"x_min":0,"x_max":0,"o":""},"Á":{"ha":1111,"x_min":0,"x_max":1033,"o":"m 837 1164 l 1033 92 l 1032 0 l 641 0 l 602 235 l 438 235 l 399 0 l 0 0 l 0 111 l 183 1164 l 837 1164 m 462 523 l 569 523 l 569 530 l 536 869 l 503 869 l 462 523 m 522 1450 l 777 1449 l 522 1214 l 366 1214 l 522 1450 z "},"Â":{"ha":1044,"x_min":0,"x_max":0,"o":""},"Ã":{"ha":1044,"x_min":0,"x_max":0,"o":""},"Ä":{"ha":1044,"x_min":0,"x_max":0,"o":""},"Å":{"ha":1044,"x_min":0,"x_max":0,"o":""},"Æ":{"ha":1436,"x_min":0,"x_max":0,"o":""},"Ç":{"ha":949,"x_min":0,"x_max":0,"o":""},"È":{"ha":781,"x_min":0,"x_max":0,"o":""},"É":{"ha":932,"x_min":-1,"x_max":857,"o":"m -1 1165 l 844 1165 q 857 1152 857 1163 l 857 1034 q 785 871 857 983 l 399 871 l 399 740 l 792 740 l 792 452 l 399 452 l 399 294 l 857 294 l 857 0 l 0 0 l -1 1165 m 448 1454 l 703 1453 l 448 1218 l 292 1218 l 448 1454 z "},"Ê":{"ha":781,"x_min":0,"x_max":0,"o":""},"Ë":{"ha":781,"x_min":0,"x_max":0,"o":""},"Ì":{"ha":446,"x_min":0,"x_max":0,"o":""},"Í":{"ha":437,"x_min":0,"x_max":456,"o":"m 1 1161 l 364 1161 l 364 0 l 0 0 l 1 1161 m 201 1454 l 456 1453 l 201 1218 l 45 1218 l 201 1454 z "},"Î":{"ha":446,"x_min":0,"x_max":0,"o":""},"Ï":{"ha":446,"x_min":0,"x_max":0,"o":""},"Ð":{"ha":1029,"x_min":0,"x_max":0,"o":""},"Ñ":{"ha":1054,"x_min":0,"x_max":0,"o":""},"Ò":{"ha":1095,"x_min":0,"x_max":0,"o":""},"Ó":{"ha":940,"x_min":-1,"x_max":868,"o":"m 165 1160 l 727 1160 q 867 1033 868 1157 l 867 127 q 701 0 867 0 l 165 0 q 0 140 -1 1 l 0 1020 q 165 1160 0 1160 m 370 854 l 370 293 l 510 293 l 510 854 l 370 854 m 452 1454 l 707 1453 l 452 1218 l 296 1218 l 452 1454 z "},"Ô":{"ha":1095,"x_min":0,"x_max":0,"o":""},"Õ":{"ha":1095,"x_min":0,"x_max":0,"o":""},"Ö":{"ha":1095,"x_min":0,"x_max":0,"o":""},"×":{"ha":688,"x_min":0,"x_max":0,"o":""},"Ø":{"ha":1095,"x_min":0,"x_max":0,"o":""},"Ù":{"ha":1018,"x_min":0,"x_max":0,"o":""},"Ú":{"ha":952,"x_min":-1,"x_max":871,"o":"m -1 1165 l 366 1165 l 365 296 l 505 296 l 505 1165 l 871 1165 l 871 0 l 130 0 q 0 113 0 18 l -1 1165 m 454 1453 l 709 1453 l 454 1217 l 298 1217 l 454 1453 z "},"Û":{"ha":1018,"x_min":0,"x_max":0,"o":""},"Ü":{"ha":1018,"x_min":0,"x_max":0,"o":""},"Ý":{"ha":836,"x_min":0,"x_max":0,"o":""},"Þ":{"ha":760,"x_min":0,"x_max":0,"o":""},"ß":{"ha":848,"x_min":0,"x_max":0,"o":""},"à":{"ha":625,"x_min":0,"x_max":0,"o":""},"á":{"ha":1114,"x_min":0,"x_max":1033,"o":"m 837 1164 l 1033 92 l 1032 0 l 641 0 l 602 235 l 438 235 l 399 0 l 0 0 l 0 111 l 183 1164 l 837 1164 m 462 523 l 569 523 l 569 530 l 536 869 l 503 869 l 462 523 m 535 1431 l 790 1430 l 535 1195 l 379 1195 l 535 1431 z "},"â":{"ha":625,"x_min":0,"x_max":0,"o":""},"ã":{"ha":625,"x_min":0,"x_max":0,"o":""},"ä":{"ha":625,"x_min":0,"x_max":0,"o":""},"å":{"ha":625,"x_min":0,"x_max":0,"o":""},"æ":{"ha":986,"x_min":0,"x_max":0,"o":""},"ç":{"ha":614,"x_min":0,"x_max":0,"o":""},"è":{"ha":616,"x_min":0,"x_max":0,"o":""},"é":{"ha":940,"x_min":-1,"x_max":857,"o":"m -1 1165 l 844 1165 q 857 1152 857 1163 l 857 1034 q 785 871 857 983 l 399 871 l 399 740 l 792 740 l 792 452 l 399 452 l 399 294 l 857 294 l 857 0 l 0 0 l -1 1165 m 448 1431 l 703 1430 l 448 1195 l 292 1195 l 448 1431 z "},"ê":{"ha":616,"x_min":0,"x_max":0,"o":""},"ë":{"ha":616,"x_min":0,"x_max":0,"o":""},"ì":{"ha":349,"x_min":0,"x_max":0,"o":""},"í":{"ha":349,"x_min":0,"x_max":0,"o":"z "},"î":{"ha":349,"x_min":0,"x_max":0,"o":""},"ï":{"ha":349,"x_min":0,"x_max":0,"o":""},"ð":{"ha":772,"x_min":0,"x_max":0,"o":""},"ñ":{"ha":751,"x_min":0,"x_max":0,"o":""},"ò":{"ha":685,"x_min":0,"x_max":0,"o":""},"ó":{"ha":940,"x_min":-1,"x_max":868,"o":"m 165 1160 l 727 1160 q 867 1033 868 1157 l 867 127 q 701 0 867 0 l 165 0 q 0 140 -1 1 l 0 1020 q 165 1160 0 1160 m 370 854 l 370 293 l 510 293 l 510 854 l 370 854 m 452 1431 l 707 1430 l 452 1195 l 296 1195 l 452 1431 z "},"ô":{"ha":685,"x_min":0,"x_max":0,"o":""},"õ":{"ha":685,"x_min":0,"x_max":0,"o":""},"ö":{"ha":685,"x_min":0,"x_max":0,"o":""},"÷":{"ha":688,"x_min":0,"x_max":0,"o":""},"ø":{"ha":685,"x_min":0,"x_max":0,"o":""},"ù":{"ha":718,"x_min":0,"x_max":0,"o":""},"ú":{"ha":947,"x_min":-1,"x_max":871,"o":"m -1 1165 l 366 1165 l 365 296 l 505 296 l 505 1165 l 871 1165 l 871 0 l 130 0 q 0 113 0 18 l -1 1165 m 454 1431 l 709 1430 l 454 1195 l 298 1195 l 454 1431 z "},"û":{"ha":718,"x_min":0,"x_max":0,"o":""},"ü":{"ha":718,"x_min":0,"x_max":0,"o":""},"ý":{"ha":589,"x_min":0,"x_max":0,"o":""},"þ":{"ha":685,"x_min":0,"x_max":0,"o":""},"ÿ":{"ha":589,"x_min":0,"x_max":0,"o":""},"ı":{"ha":349,"x_min":0,"x_max":0,"o":""},"ˆ":{"ha":694,"x_min":0,"x_max":0,"o":""},"ˇ":{"ha":694,"x_min":0,"x_max":0,"o":""},"ˉ":{"ha":694,"x_min":0,"x_max":0,"o":""},"˘":{"ha":694,"x_min":0,"x_max":0,"o":""},"˙":{"ha":694,"x_min":0,"x_max":0,"o":""},"˚":{"ha":694,"x_min":0,"x_max":0,"o":""},"˛":{"ha":694,"x_min":0,"x_max":0,"o":""},"˜":{"ha":694,"x_min":0,"x_max":0,"o":""},"˝":{"ha":694,"x_min":0,"x_max":0,"o":""},"–":{"ha":751,"x_min":0,"x_max":0,"o":""},"—":{"ha":1389,"x_min":0,"x_max":0,"o":""},"‘":{"ha":378,"x_min":0,"x_max":0,"o":""},"’":{"ha":378,"x_min":0,"x_max":0,"o":""},"‚":{"ha":378,"x_min":0,"x_max":0,"o":""},"“":{"ha":617,"x_min":0,"x_max":0,"o":""},"”":{"ha":617,"x_min":0,"x_max":0,"o":""},"„":{"ha":617,"x_min":0,"x_max":0,"o":""},"†":{"ha":688,"x_min":0,"x_max":0,"o":""},"‡":{"ha":688,"x_min":0,"x_max":0,"o":""},"•":{"ha":694,"x_min":0,"x_max":0,"o":""},"…":{"ha":1389,"x_min":0,"x_max":0,"o":""},"‹":{"ha":428,"x_min":0,"x_max":0,"o":""},"›":{"ha":428,"x_min":0,"x_max":0,"o":""},"⁄":{"ha":232,"x_min":0,"x_max":0,"o":""},"∕":{"ha":232,"x_min":0,"x_max":0,"o":""},"₣":{"ha":688,"x_min":0,"x_max":0,"o":""},"₤":{"ha":688,"x_min":0,"x_max":0,"o":""},"₧":{"ha":1375,"x_min":0,"x_max":0,"o":""},"€":{"ha":688,"x_min":0,"x_max":0,"o":""},"№":{"ha":1540,"x_min":0,"x_max":0,"o":""},"™":{"ha":1015,"x_min":0,"x_max":0,"o":""},"∂":{"ha":688,"x_min":0,"x_max":0,"o":""},"∆":{"ha":733,"x_min":0,"x_max":0,"o":""},"∏":{"ha":1027,"x_min":0,"x_max":0,"o":""},"∑":{"ha":818,"x_min":0,"x_max":0,"o":""},"−":{"ha":688,"x_min":0,"x_max":0,"o":""},"√":{"ha":688,"x_min":0,"x_max":0,"o":""},"∞":{"ha":688,"x_min":0,"x_max":0,"o":""},"∫":{"ha":451,"x_min":0,"x_max":0,"o":""},"≈":{"ha":688,"x_min":0,"x_max":0,"o":""},"≤":{"ha":688,"x_min":0,"x_max":0,"o":""},"≥":{"ha":688,"x_min":0,"x_max":0,"o":""},"":{"ha":728,"x_min":0,"x_max":0,"o":""},"ﬁ":{"ha":728,"x_min":0,"x_max":0,"o":""},"":{"ha":733,"x_min":0,"x_max":0,"o":""},"ﬂ":{"ha":733,"x_min":0,"x_max":0,"o":""}}}
